<svg xmlns="http://www.w3.org/2000/svg" viewBox="0 0 64 64"><defs><style>.cls-1{fill:#dfe1ea;}.cls-2{fill:#8dd5f6;}.cls-3{fill:#aedff7;}.cls-4{fill:#f6fafd;}.cls-5{fill:#0096cf;}.cls-6{fill:#adb2c7;}.cls-7{fill:#fff;}.cls-8{fill:#73c6b2;}</style></defs><title>3-App</title><g id="_3-App" data-name="3-App"><path class="cls-1" d="M46,4V60a3,3,0,0,1-3,3H9a3,3,0,0,1-3-3V4A3,3,0,0,1,9,1H43A3,3,0,0,1,46,4ZM42,58V7a.979.979,0,0,0-1-1H33s-1,2-2,2H21c-1,0-2-2-2-2H11a.979.979,0,0,0-1,1V58a.979.979,0,0,0,1,1H41A.979.979,0,0,0,42,58Z"/><path class="cls-2" d="M42,7V58a.979.979,0,0,1-1,1H11a.979.979,0,0,1-1-1V7a.979.979,0,0,1,1-1h8s1,2,2,2H31c1,0,2-2,2-2h8A.979.979,0,0,1,42,7Z"/><path class="cls-3" d="M37.6,17c-7.6,0-7.6-2-15.2-2C15.872,15,14.935,16.47,10,16.888v7C14.935,23.47,15.872,22,22.394,22c7.6,0,7.6,2,15.2,2A28.636,28.636,0,0,0,42,23.7v-7A28.636,28.636,0,0,1,37.6,17Z"/><path class="cls-4" d="M10,7v9.888C14.935,16.47,15.872,15,22.394,15c7.6,0,7.6,2,15.2,2A28.636,28.636,0,0,0,42,16.7V7a.979.979,0,0,0-1-1H33s-1,2-2,2H21c-1,0-2-2-2-2H11A.979.979,0,0,0,10,7Z"/><rect class="cls-5" x="16" y="13" width="11" height="11" rx="0.88" ry="0.88"/><rect class="cls-5" x="16" y="26" width="11" height="11" rx="0.88" ry="0.88"/><rect class="cls-5" x="16" y="39" width="11" height="11" rx="0.88" ry="0.88"/><rect class="cls-5" x="31" y="44" width="11" height="5" rx="0.635" ry="0.635"/><rect class="cls-1" x="30" y="23" width="21" height="23"/><rect class="cls-6" x="34" y="18" width="21" height="23"/><rect class="cls-7" x="38" y="23" width="20" height="14"/><rect class="cls-8" x="38" y="15" width="20" height="8"/><rect class="cls-1" x="41" y="26" width="14" height="8"/><rect class="cls-7" x="41" y="18" width="2" height="2"/><rect class="cls-7" x="45" y="18" width="2" height="2"/><polygon class="cls-6" points="24 39 24 47 16 47 24 39"/><polygon class="cls-7" points="24 39 16 47 16 39 24 39"/><polygon class="cls-7" points="24 26 24 34 16 34 24 26"/><polygon class="cls-6" points="24 26 16 34 16 26 24 26"/><polygon class="cls-6" points="24 13 24 21 16 21 24 13"/><polygon class="cls-7" points="24 13 16 21 16 13 24 13"/><rect class="cls-7" x="15" y="54" width="23" height="2"/><path d="M58,14H47V4a4,4,0,0,0-4-4H9A4,4,0,0,0,5,4V60a4,4,0,0,0,4,4H43a4,4,0,0,0,4-4V47h4a1,1,0,0,0,1-1V42h3a1,1,0,0,0,1-1V38h2a1,1,0,0,0,1-1V15A1,1,0,0,0,58,14Zm-1,8H39V16H57ZM33,18v4H30a1,1,0,0,0-1,1V46a1,1,0,0,0,1,1H41V58H11V7h7.412C18.9,7.807,19.827,9,21,9H31c1.173,0,2.1-1.193,2.588-2H41v7H38a1,1,0,0,0-1,1v2H34A1,1,0,0,0,33,18ZM45,60a2,2,0,0,1-2,2H9a2,2,0,0,1-2-2V4A2,2,0,0,1,9,2H43a2,2,0,0,1,2,2V14H43V7a1.959,1.959,0,0,0-2-2H33a1,1,0,0,0-.894.551A4.184,4.184,0,0,1,31,7l-9.956,0a3.775,3.775,0,0,1-1.15-1.454A1,1,0,0,0,19,5H11A1.959,1.959,0,0,0,9,7V58a1.959,1.959,0,0,0,2,2H41a1.959,1.959,0,0,0,2-2V47h2Zm5-15H31V24h2V41a1,1,0,0,0,1,1H50Zm4-5H35V19h2V37a1,1,0,0,0,1,1H54ZM39,36V24H57V36Z"/><path d="M24,12H16a1,1,0,0,0-1,1v8a1,1,0,0,0,1,1h8a1,1,0,0,0,1-1V13A1,1,0,0,0,24,12Zm-2.414,2L17,18.586V14Zm-3.172,6L23,15.414V20Z"/><path d="M24,25H16a1,1,0,0,0-1,1v8a1,1,0,0,0,1,1h8a1,1,0,0,0,1-1V26A1,1,0,0,0,24,25Zm-2.414,2L17,31.586V27Zm-3.172,6L23,28.414V33Z"/><path d="M24,38H16a1,1,0,0,0-1,1v8a1,1,0,0,0,1,1h8a1,1,0,0,0,1-1V39A1,1,0,0,0,24,38Zm-2.414,2L17,44.586V40Zm-3.172,6L23,41.414V46Z"/><rect x="29" y="50" width="9" height="2"/><rect x="15" y="50" width="7" height="2"/></g></svg>